<svg id="logo-desktop.svg" xmlns="http://www.w3.org/2000/svg" width="202" height="59"><defs><style>.cls-1{fill:#fdc305}.cls-2{fill:#f06351}.cls-4{fill:#111}.cls-5{fill:#444}</style></defs><path id="Path_41" data-name="Path 41" class="cls-1" d="M59.887 23.8a25.684 25.684 0 0 0-33.5-13.646 25.358 25.358 0 0 0 6.123 48.568 119.216 119.216 0 0 1-1.692-6.8 32.8 32.8 0 0 0 4.769 2.534l-.02.01s.119 2.14.279 4.529a25.635 25.635 0 0 0 5.347-.474 1.97 1.97 0 0 1 .012-.756c.287-1.847 1.093-5.194 1.249-7.348a15.189 15.189 0 0 0 2.9-3.682v.036l-.055.43c-.554 4.231-1.7 8.743-2.4 9.991a5.694 5.694 0 0 1-.83 1.144 26.013 26.013 0 0 0 4.068-1.305A25.327 25.327 0 0 0 59.887 23.8zm-1.478 3.755c-.434.43-1.349.716-1.494-.574s-.193-2.2-.193-2.2-1.927-3.394-2.65-3.442-5.831 3.442-7.18 4.924c-1.165 1.279-1.4 1.194-1.4 3.441 0 1.7.221 8.1.1 13l-8.147 2.15a64.981 64.981 0 0 1-7.806 1.769l-1.012-5.784-.039-.007h-.034l-.049-.006-2.57-13.079s-3.807-1.433-5.2-1.816a3.766 3.766 0 0 0-4.048.622 5.017 5.017 0 0 0-1.735 3.824 6.783 6.783 0 0 1 .482 1.434c.048.477-1.205.43-2.024.43s-.916-1.433-.289-3.107a23.371 23.371 0 0 1 1.927-3.681 11.809 11.809 0 0 1 2.072-2.868s.145-.334 1.253-.239 7.277.43 7.277.43l.053-2.257a145.479 145.479 0 0 1 20.246-1.325c-.011.6-.029 1.208-.058 1.813a22.79 22.79 0 0 1 8.144-1.96.919.919 0 0 1 .771.382c.337.43 2.409 2.964 2.65 3.347a27.62 27.62 0 0 1 1.831 3.011 6.188 6.188 0 0 1-.878 1.77z"/><path id="Path_42" data-name="Path 42" class="cls-2" d="M56.458 21.5c.474.593.887 1.12.987 1.279a27.62 27.62 0 0 1 1.831 3.011 6.188 6.188 0 0 1-.867 1.769c-.434.43-1.349.716-1.494-.574s-.193-2.2-.193-2.2-1.927-3.394-2.65-3.442-5.831 3.442-7.18 4.924c-1.165 1.279-1.4 1.194-1.4 3.441 0 1.49.17 6.6.129 11.135 1.809.207 4.467.7 5.268 1.867 0 0-.289-7.122 7.807-3.394 0 0 .289-9.7 11.47-7.217A43.706 43.706 0 0 0 56.458 21.5z"/><path id="Path_43" data-name="Path 43" class="cls-2" d="M45.937 19.195A89.121 89.121 0 0 0 44.529 2.8s-.144-1.29-.867-.239a14.031 14.031 0 0 0-1.205 3.92 71.184 71.184 0 0 0-12.819.334c-.82-2.725-2.217-3.919-2.892-3.632s-.723 3.3-.723 3.3l-.332 14.037a145.479 145.479 0 0 1 20.246-1.325z"/><path id="Path_44" data-name="Path 44" d="M45.353 46.736c.126-1.056.2-2.466.239-4.027l-8.147 2.15a64.981 64.981 0 0 1-7.806 1.769l1.107 4.972.07.323a32.8 32.8 0 0 0 4.769 2.534 42.653 42.653 0 0 0 6.871-4.1v.062a15.189 15.189 0 0 0 2.897-3.683z" fill="#e55645"/><path id="Path_45" data-name="Path 45" d="M32 16.084c-.046-.09 1.026.678 1.412.917s.612.422.612.589-.265.334-.627.334-.915-.119-.963-.263c0 0 .6-.024.939-.024h.29A8.25 8.25 0 0 1 32 16.084z"/><path id="Path_46" data-name="Path 46" d="M39.5 16.2s-1.052 1.269-1.091 1.327-.166.339.186.291a7.99 7.99 0 0 0 1.223-.281c.108-.059.07-.2-.117-.175-.206.022-.685.048-.989.106l.845-1.256s.029-.12-.057-.012z"/><path id="Path_47" data-name="Path 47" d="M36.358 22.263a2.311 2.311 0 0 0 1.093-1c.281-.655.037-.909-.442-.974a2.472 2.472 0 0 0-1.744.337c-.4.368-.344.726-.054.95a5.021 5.021 0 0 0 1.147.687z"/><path id="Path_48" data-name="Path 48" class="cls-2" d="M35.952 23.509a1.964 1.964 0 0 1-.461.591 1.74 1.74 0 0 1-1.021.385 2.176 2.176 0 0 1-1.457-.443 2.084 2.084 0 0 1-.535-.439.948.948 0 0 0-.358-.252s.751 4.082 2.576 4.728 2.152-.747 2.209-1.129a5.533 5.533 0 0 0-.823-3.21c-.015-.304-.031-.101-.13-.231z"/><g id="Group_12" data-name="Group 12"><path id="Path_49" data-name="Path 49" d="M34.3 24.636h-.016a3.474 3.474 0 0 1-2.342-1.412.142.142 0 0 1 .032-.2.145.145 0 0 1 .2.032 3.243 3.243 0 0 0 2.112 1.294h.014a2.1 2.1 0 0 0 1.634-.986l.143-.187.1.212c0 .007.374.752.992.791.5.031 1.057-.41 1.622-1.273a.146.146 0 0 1 .2-.043.143.143 0 0 1 .043.2c-.636.97-1.27 1.441-1.885 1.4a1.55 1.55 0 0 1-1.121-.761 2.265 2.265 0 0 1-1.728.933z"/></g><ellipse id="Ellipse_7" data-name="Ellipse 7" class="cls-1" cx="3.75" cy="3.72" rx="3.75" ry="3.72" transform="translate(32.507 30.549)"/><path id="Path_50" data-name="Path 50" class="cls-4" d="M41.235 31.25l-3.133 1.3 1.149-5.59-7.5 9.683 3.133-1.3-1.149 5.59zm-7.388 3.792l4.131-5.365-.807 3.988 1.967-.815-4.131 5.365.807-3.988z"/><ellipse id="Ellipse_8" data-name="Ellipse 8" class="cls-4" cx="1.123" cy="1.114" rx="1.123" ry="1.114" transform="translate(31.315 31.364)"/><ellipse id="Ellipse_9" data-name="Ellipse 9" class="cls-4" cx=".794" cy=".788" rx=".794" ry=".788" transform="translate(38.166 36.047)"/><ellipse id="Ellipse_10" data-name="Ellipse 10" class="cls-4" cx=".348" cy=".345" rx=".348" ry=".345" transform="translate(39.576 34.768)"/><path id="Path_51" data-name="Path 51" class="cls-2" d="M45.879 20.989a58.174 58.174 0 0 0-5.084 5.17 31.686 31.686 0 0 1-5.313 4.855c-.217-.525-1.627-1.5-1.627-1.5s-3.144-2.131-5.2-3.807a33.031 33.031 0 0 1-3.138-3L23.5 22.6a22.643 22.643 0 0 0 12.02 8.767c.867-.14 3.289-1.852 5.1-3.249a57.455 57.455 0 0 0 5.963-5.868 6.03 6.03 0 0 0 1.141-1.962 22.586 22.586 0 0 0-1.845.701z"/><path id="Path_52" data-name="Path 52" class="cls-1" d="M65.221 3.47l-8.455 9.368-1.219-1.981L63.7 0z"/><path id="Path_53" data-name="Path 53" class="cls-1" d="M62.648 17.119L68.2 13.04l-.789-3.7-5.4 4.774z"/><path id="Path_54" data-name="Path 54" class="cls-1" d="M59.927 48.968l6.129 3.16 3.01-2.327-6.694-2.723z"/><path id="Path_55" data-name="Path 55" class="cls-1" d="M1.954 5.927l3.064-3.334 9.3 8.926-1.226 2.258z"/><path id="Path_56" data-name="Path 56" class="cls-1" d="M7.382 16.152l-4.7-3.1-2.4 3.829 5.148 2.378z"/><path id="Path_57" data-name="Path 57" class="cls-1" d="M13.908 52.127L9.36 55.449 12.166 59l4.019-3.991z"/><path id="Path_58" data-name="Path 58" class="cls-2" d="M25.927 27.747s-3.807-1.433-5.2-1.816a3.766 3.766 0 0 0-4.048.622 5.017 5.017 0 0 0-1.735 3.824 6.783 6.783 0 0 1 .482 1.434c.048.477-1.205.43-2.024.43s-.916-1.433-.289-3.107a23.371 23.371 0 0 1 1.927-3.681C9.59 28.273 0 34.774 0 34.774a46.291 46.291 0 0 1 8.192.239c5.253.526 4.964 4.637 4.964 4.637a38.449 38.449 0 0 1 5.638-1.1c2.12-.143 2.265 2.1 2.265 2.1l.53 3.824a18.7 18.7 0 0 1 2.65-2.342 6.111 6.111 0 0 1 4.386-1.291z"/><g id="Group_13" data-name="Group 13"><path id="Path_59" data-name="Path 59" class="cls-4" d="M85.661 41.7a8.2 8.2 0 0 1-1.4-5.148V29.1a8.288 8.288 0 0 1 1.385-5.2q1.385-1.759 4.751-1.76 3.209 0 4.543 1.553a6.656 6.656 0 0 1 1.333 4.456V29.9h-4.14v-1.929a9.849 9.849 0 0 0-.091-1.49 1.657 1.657 0 0 0-.466-.937 1.581 1.581 0 0 0-1.152-.372 1.468 1.468 0 0 0-1.5.745 5.5 5.5 0 0 0-.337 2.182v9.449a4.753 4.753 0 0 0 .389 2.183 1.5 1.5 0 0 0 1.449.719 1.348 1.348 0 0 0 1.4-.732 5.821 5.821 0 0 0 .311-2.17V35.52h4.142v1.72a7.155 7.155 0 0 1-1.32 4.609q-1.324 1.632-4.558 1.631-3.341 0-4.739-1.78z"/><path id="Path_60" data-name="Path 60" class="cls-4" d="M101.919 22.4h4.737l4.044 20.8h-3.94l-.777-4.571h-3.313l-.8 4.571h-4.016zm3.65 13.609l-1.269-8.372-1.242 8.371z"/><path id="Path_61" data-name="Path 61" class="cls-4" d="M113.723 25.531h-3.236V22.4H121.2v3.132h-3.184V43.2h-4.3z"/><path id="Path_62" data-name="Path 62" class="cls-5" d="M129.618 22.4h8.128v2.157h-5.2v6.881h4.22v2.054h-4.22v7.627h5.254V43.2h-8.18z"/><path id="Path_63" data-name="Path 63" class="cls-5" d="M140.155 22.4h1.993l5.952 13.813V22.4h2.434v20.8h-1.864L142.64 29v14.2h-2.485z"/><path id="Path_64" data-name="Path 64" class="cls-5" d="M153.823 22.4h8.127v2.157h-5.2v6.881h4.22v2.054h-4.22v7.627H162V43.2h-8.179z"/><path id="Path_65" data-name="Path 65" class="cls-5" d="M164.36 22.4h4.219a7 7 0 0 1 4.672 1.3 5.334 5.334 0 0 1 1.489 4.225q0 4.005-2.59 4.852l2.977 10.423h-2.821l-2.744-9.758h-2.279V43.2h-2.923zm4.04 8.96a3.961 3.961 0 0 0 2.7-.744 3.564 3.564 0 0 0 .816-2.7 5.744 5.744 0 0 0-.285-2.016 1.944 1.944 0 0 0-1.009-1.079 4.872 4.872 0 0 0-2.045-.346h-1.3v6.885z"/><path id="Path_66" data-name="Path 66" class="cls-5" d="M178.674 41.67a9.146 9.146 0 0 1-1.268-5.3v-6.961a13.126 13.126 0 0 1 .5-3.967 4.449 4.449 0 0 1 1.735-2.389 5.954 5.954 0 0 1 3.378-.834 5.3 5.3 0 0 1 4.181 1.463 6.865 6.865 0 0 1 1.281 4.6v.771h-2.744v-.642a11.218 11.218 0 0 0-.18-2.3 1.948 1.948 0 0 0-.764-1.22 3 3 0 0 0-1.722-.411 2.291 2.291 0 0 0-2.575 2.028 14.259 14.259 0 0 0-.169 2.465v7.7a7.429 7.429 0 0 0 .583 3.428 2.337 2.337 0 0 0 2.239 1.04 2.314 2.314 0 0 0 2.24-1.13 8.046 8.046 0 0 0 .608-3.62v-1.436h-2.666V32.9h5.306v10.3H186.8l-.285-2.388a3.686 3.686 0 0 1-3.728 2.644 4.7 4.7 0 0 1-4.113-1.786z"/><path id="Path_67" data-name="Path 67" class="cls-5" d="M194.7 35.854L190.169 22.4h2.718l3.21 10.04 3.159-10.04H202l-4.5 13.454V43.2h-2.8z"/></g></svg>