<svg xmlns="http://www.w3.org/2000/svg" width="33" height="38"><path d="M6.013 20.936l.052-2.288A139.477 139.477 0 0 1 26.036 17.3a66.776 66.776 0 0 1-.057 1.839 24.862 24.862 0 0 1 5.978-1.832A16.53 16.53 0 0 0 16.494 6.374 16.614 16.614 0 0 0 .186 20.594c2.151.138 5.827.342 5.827.342zm20.964 3.54c-1.149 1.3-1.379 1.212-1.379 3.491 0 .918.027 4.948.035 9.267A16.91 16.91 0 0 0 33 23.212a17.194 17.194 0 0 0-.282-3.11 33.472 33.472 0 0 0-5.741 4.374zM6.3 25.979s-3.756-1.455-5.134-1.843A10.587 10.587 0 0 0 0 23.85 16.876 16.876 0 0 0 8.595 38z" fill="#fdc305"/><path d="M26.042 17.3A92.87 92.87 0 0 0 24.654.661s-.143-1.31-.854-.243a14.532 14.532 0 0 0-1.19 3.977 68.311 68.311 0 0 0-12.645.339C9.156 1.97 7.778.758 7.112 1.049S6.4 4.395 6.4 4.395l-.329 14.246A139.623 139.623 0 0 1 26.042 17.3z" fill="#f06351"/><path d="M12.294 14.142c-.046-.092 1.012.688 1.392.93s.6.427.6.6-.261.339-.618.339-.9-.121-.951-.267c0 0 .594-.024.927-.024h.285a8.23 8.23 0 0 1-1.635-1.578zm7.401.115s-1.037 1.287-1.076 1.346-.164.345.183.3a7.672 7.672 0 0 0 1.206-.286c.106-.059.069-.2-.116-.177-.2.022-.675.048-.975.108l.833-1.274s.027-.123-.055-.017zm-3.102 6.152a2.3 2.3 0 0 0 1.079-1.018c.276-.664.036-.921-.437-.988a2.38 2.38 0 0 0-1.72.342c-.392.373-.339.736-.053.964a4.91 4.91 0 0 0 1.131.7z"/><path d="M16.192 21.673a1.983 1.983 0 0 1-.455.6 1.686 1.686 0 0 1-1.007.391 2.109 2.109 0 0 1-1.438-.45 2.08 2.08 0 0 1-.527-.447.934.934 0 0 0-.353-.256s.74 4.141 2.54 4.8 2.123-.757 2.18-1.145a5.745 5.745 0 0 0-.812-3.256c-.014-.31-.03-.103-.128-.237z" fill="#f06351"/><path d="M14.567 22.818h-.016a3.423 3.423 0 0 1-2.311-1.433.146.146 0 0 1 .032-.2.141.141 0 0 1 .2.031 3.2 3.2 0 0 0 2.084 1.313h.012a2.059 2.059 0 0 0 1.611-1l.142-.19.1.215c0 .007.369.763.979.8.492.031 1.043-.415 1.6-1.291a.141.141 0 0 1 .2-.043.148.148 0 0 1 .043.2c-.627.984-1.253 1.462-1.859 1.422a1.533 1.533 0 0 1-1.106-.772 2.216 2.216 0 0 1-1.711.948z"/><path d="M25.985 19.118a58.233 58.233 0 0 0-5.015 5.244 31.584 31.584 0 0 1-5.241 4.926c-.214-.532-1.6-1.524-1.6-1.524S11.022 25.6 8.99 23.9a33 33 0 0 1-3.1-3.043l-1.987-.11A22.309 22.309 0 0 0 15.76 29.64c.856-.141 3.245-1.878 5.027-3.3a57.457 57.457 0 0 0 5.883-5.954A6.17 6.17 0 0 0 27.8 18.4c-1.1.39-1.815.718-1.815.718z" fill="#f06351"/></svg>