<svg xmlns="http://www.w3.org/2000/svg" width="70" height="97"><path data-name="Color Overlay" d="M45.705 97a75.008 75.008 0 0 1-2.235-12.551 61.5 61.5 0 0 1 .153-11.043 92.643 92.643 0 0 0 .172-14.17c-.044-.724-.069-1.45-.164-2.167-.142-1.071-.169-1.071-1-.44a21.744 21.744 0 0 0-5.6 6.372 30.043 30.043 0 0 0-3.477 10.827c-.788 4.977-1.419 9.993-3.052 14.8a10.249 10.249 0 0 1-1.59 3.106c-.432.546-.343.754.351.914a4.974 4.974 0 0 1 3.827 3.073 2.068 2.068 0 0 1 .231 1.282H0c-.031-2.18.2-4.348.374-6.514.354-4.338.811-8.667 1.459-12.973 1.385-9.192 3.124-18.3 6.839-26.9a27.725 27.725 0 0 1 4.738-7.84c3.416-3.761 7.812-5.982 12.553-7.574 1.859-.624 3.794-1.023 5.692-1.533A9.014 9.014 0 0 0 36 31.234c.193-.2.513-.4.431-.689-.1-.347-.49-.229-.75-.216-.84.04-1.091-.359-1.08-1.151.03-2.2-.089-2.173 1.419-2.151.208 0 .447.006.722 0 1.906-.019 1.932.005 2.568-1.769 1.331-3.715 2.422-7.512 3.849-11.2A26.429 26.429 0 0 1 45 10.122a7.34 7.34 0 0 1 5.23-3.743 1.637 1.637 0 0 0 1.481-1.339 15.666 15.666 0 0 1 1.317-3.445A3.521 3.521 0 0 1 54.465 0h.381a3.493 3.493 0 0 1 1.4 1.74 19.223 19.223 0 0 1 1.267 4.158 1.507 1.507 0 0 0 .887 1.125c4.73 2.407 8.194 6.2 11.372 10.306a1.013 1.013 0 0 1 .092 1.146c-.442.978-.89 1.956-1.288 2.952-.245.614-.6.755-1.252.64a22.263 22.263 0 0 0-6.611-.431 6.249 6.249 0 0 0-5.136 4.436c-.169.667.03.968.722.955h.591c.311.005.622.011.932-.012.759-.056 1.029.324 1.015 1.013v.663c-.026 1.608-.026 1.608-1.657 1.643-1.1.022-1.2.131-.709 1.147.943 1.964 1.957 3.894 2.912 5.853.332.68.59 1.4.862 2.1a5.868 5.868 0 0 1-.415 5.188c-1.172 2.132-2.211 4.337-3.4 6.457a17.712 17.712 0 0 0-2.274 7.027A178.243 178.243 0 0 1 51.09 76.29a56.66 56.66 0 0 0-.96 15.819c.05.679.3.786.9.649a8.986 8.986 0 0 1 3.768-.2A5.423 5.423 0 0 1 59.034 97z"/></svg>